<?xml version="1.0" encoding="UTF-8" standalone="no"?>
<!DOCTYPE svg PUBLIC "-//W3C//DTD SVG 1.1//EN" "http://www.w3.org/Graphics/SVG/1.1/DTD/svg11.dtd">
<svg width="100%" height="100%" viewBox="0 0 290 290" version="1.1" xmlns="http://www.w3.org/2000/svg" xmlns:xlink="http://www.w3.org/1999/xlink" xml:space="preserve" xmlns:serif="http://www.serif.com/" style="fill-rule:evenodd;clip-rule:evenodd;stroke-linejoin:round;stroke-miterlimit:2;">
    <g id="Raven" transform="matrix(0.810561,0,0,0.810561,-694.536,-0.718079)">
        <g id="Outline" transform="matrix(1.23371,0,0,1.23371,856.859,0.885904)">
            <path d="M74.686,224.618C53.146,217.051 21.154,186.064 0,167.704L0,75.723C23.134,41.062 69.343,23.742 98.542,16C123.607,9.354 164.961,26.57 175.196,29.273C246.535,37.797 284.517,71.081 288.451,89.7C266.078,96.373 215.133,88.593 188.165,95.739C167.397,109.086 148.152,191.626 129.239,213.106C116.957,227.055 92.22,230.778 74.686,224.618Z" style="fill:rgb(171,164,219);stroke:rgb(170,93,42);stroke-width:1px;"/>
        </g>
        <g id="Ruff" transform="matrix(1.23371,0,0,1.23371,856.859,0.885904)">
            <path d="M131.746,290C126.118,278.897 117.498,273.105 111.161,266.767C102.38,249.07 89.681,207.596 83.602,192.195C81.289,199.678 75.812,178.564 73.875,172.742C71.56,175.397 70.623,179.136 56.043,180.037C54.293,170.576 53.777,151.961 53.611,141.13C59.607,132.197 64.149,125.316 72.254,123.298C79.49,135.115 93.17,144.226 101.434,147.615C107.427,151.085 110.621,154.59 116.025,158.152C121.428,152.472 127.408,147.912 133.046,143.562C136.862,141.972 143.594,142.187 145.205,145.993C144.381,154.916 148.735,178.343 150.879,185.711C152.635,178.36 153.951,180.852 156.107,176.372C157.593,187.044 159.795,249.745 159.795,249.745C159.795,249.745 158.516,247.913 156.553,246.503C155.472,248.259 154.778,255.95 153.31,260.283C152.098,258.433 152.001,258.16 150.068,256.23C150.54,258.854 150.068,269.199 150.068,269.199C150.068,269.199 146.985,265.478 144.394,261.904C144.587,265.161 144.555,272.081 144.394,278.115C141.3,279.479 140.06,284.375 138.614,290L131.746,290Z" style="fill:rgb(27,17,109);stroke:rgb(170,93,42);stroke-width:2px;"/>
        </g>
        <path id="Beard" d="M1090,119C1077.39,119.046 1051.83,122.426 1033,129C1012.33,136.833 977.196,156.706 966,166C972.47,174.255 986.088,184.513 997,191C1004.17,196.548 1012.32,202.278 1019,207C1023.95,198.213 1031.37,187.634 1035,184C1036.9,193.529 1041.56,222.174 1047,233C1049.67,223.043 1050.89,203.131 1051,197C1052.5,200.222 1058.55,216.372 1060,224C1061,217.167 1061.35,184.113 1064,166C1069.31,147.65 1073.82,129.017 1090,119Z" style="fill:rgb(65,57,130);stroke:rgb(170,93,42);stroke-width:2.47px;"/>
        <g id="Beak">
            <g transform="matrix(0.985638,0,0,0.985638,803.625,0.885904)">
                <path d="M234,86C227.575,90.396 216.315,92.949 208.368,93.456C200.896,93.933 187.727,94.191 176.916,73.165C178.629,73.263 179.315,73.078 179.96,72.15C194.199,86.367 203.461,78.324 207.857,75.233C211.212,72.874 212.974,61.333 207.968,53.823C212.629,48.284 222.556,44.811 234.535,42.557C236.929,48.399 234.672,48.768 236.776,51.859C238.635,54.057 243.323,52.204 245.907,54.903C247.598,57.439 248.411,63.287 246.921,67.077C245.062,71.813 243.598,77.621 238.016,81.441C238.016,81.441 239.255,84.849 244.255,88.114C261.501,84.132 320.259,84.896 347.286,89.385C369.67,93.104 384.004,97.461 412.124,113.289C392.169,116.381 278.515,116.884 245.909,116.792C235.957,116.763 212.537,104.631 218.515,97.515C224.096,93.119 226.578,90.708 238,90L234,86Z" style="fill:rgb(132,99,153);stroke:rgb(170,93,42);stroke-width:1.25px;"/>
            </g>
            <g transform="matrix(0.985638,0,0,0.985638,803.625,0.885904)">
                <path d="M246.826,41.784C248.87,49.474 249.735,59.024 256.053,65.048C247.477,77.955 235.761,83.48 229.674,87.369C224.956,90.383 214.286,93.456 214.455,94.471C214.625,95.486 225.389,94.602 230.688,93.456C236.945,92.104 244.513,86.614 251.994,86.354C271.441,85.678 320.308,85.002 347.364,89.398C370.695,93.19 405.025,112.564 414.326,112.733C422.643,112.884 409.474,95.835 403.165,90.413C392.343,81.112 368.184,65.088 349.393,56.932C332.322,49.522 309.318,42.051 296.635,38.669C289.091,36.658 273.626,36.312 273.3,36.64C272.975,36.969 265,30 253.086,22.861L253.085,22.861C225.58,4.21 139.35,-37.833 57.919,88.975C49.936,92.755 88.479,118.821 94.736,120.85C100.214,122.626 107.925,122.879 111.983,121.864C115.231,121.053 121.839,105.665 125.173,102.588C129.569,98.529 140.989,93.626 145.464,90.413C143.388,87.645 140.854,85.047 140.391,83.311C142.354,80.12 145.119,76.438 148.508,74.179C153.581,70.798 166.601,67.077 170.829,63.019C170.69,57.471 170.851,53.181 173.872,49.83C180.43,42.557 191.696,41.306 208.368,52.873C219.446,43.772 234.345,42.294 246.826,41.784Z" style="fill:rgb(105,99,153);stroke:rgb(170,93,42);stroke-width:1.25px;"/>
            </g>
            <path d="M1110.95,115.711C1103.04,115.201 1057.91,117.783 1043.53,115.938C1027.11,110.686 1018.48,103.284 1016,97C1015.85,100.609 1016.92,104.893 1018,108C1019.17,109.464 1017.32,110.905 1014,112C1016.77,114.107 1018.4,115.5 1020,117C1020.34,118.312 1020.21,119.233 1020,121C1022.65,119.808 1027.96,120.667 1031,122C1030.81,124.751 1031.52,126.945 1031,129C1034.34,129.333 1047.3,125.382 1051,124C1050.96,125.15 1051.24,126.083 1052,128C1053.78,127.488 1062.17,126 1064,125C1065.43,122.988 1066.92,122.475 1069,121C1073.5,120 1084.01,119.881 1091,119C1097.69,118.157 1117.67,116.145 1110.95,115.711Z" style="fill:rgb(2,2,2);stroke:rgb(170,93,42);stroke-width:1.23px;"/>
        </g>
        <g id="eye">
            <path d="M981.522,50.912C985.125,47.21 1001.44,48.674 1006.14,52.702C1013.22,57.447 1012.54,69.721 1009.52,73.912C1006.14,78.61 992.567,82.311 984.522,74.912C980.077,70.824 977.919,54.614 981.522,50.912Z" style="fill:rgb(65,57,130);stroke:rgb(170,93,42);stroke-width:2.47px;"/>
            <g transform="matrix(0.985638,0,0,0.985638,803.625,0.885904)">
                <path d="M182.518,54.813C184.548,51.601 196.737,50.948 200.457,53.823C204.178,56.697 208.456,58.622 204.839,72.061C201.476,76.608 191.311,75.95 187.591,73.076C183.871,70.201 180.489,58.026 182.518,54.813ZM184.59,56.248C190.747,51.66 194.421,53.943 198.869,55.408C208.657,60.1 202.119,66.981 198.359,71.371C192.682,71.824 192.678,71.876 200.549,62.967C190.547,64.127 180.641,61.639 184.59,56.248Z" style="fill:rgb(13,8,8);"/>
            </g>
        </g>
    </g>
</svg>
